# xmcd
#
# Track frame offsets:
#	150
#	16808
#	31565
#	46149
#	62169
#	80969
#	97342
#	112341
#	132239
#	146227
#	160348
#	170829
#	190680
#
# Disc length: 2738 seconds
#
# Revision: 2
# Processed by: cddbd v1.5.2PL0 Copyright (c) Steve Scherf et al.
# Submitted via: audiograbber 1.83.01
#
DISCID=bb0ab00d
DTITLE=Troy Cassar-Daley - I Love This Place
DYEAR=2009
DGENRE=Country
TTITLE0=Sing About This Country
TTITLE1=Chasin' Rodeo
TTITLE2=Big, Big Love
TTITLE3=I Love This Place
TTITLE4=Dowm That Road Before
TTITLE5=Ain't Gonna Change For You (featuring The McClymonts)
TTITLE6=This Day Is Mine
TTITLE7=This Town Is Me
TTITLE8=Country Boy (Lost In The City)
TTITLE9=Bean Pickin' Blues
TTITLE10=Fred Brophy's In Town
TTITLE11=I Love You
TTITLE12=Won't Let The Sun (Go Down On This Love)
EXTD=YEAR: 2009
EXTT0=
EXTT1=
EXTT2=
EXTT3=
EXTT4=
EXTT5=
EXTT6=
EXTT7=
EXTT8=
EXTT9=
EXTT10=
EXTT11=
EXTT12=
PLAYORDER=
